<svg width="131" height="112" viewBox="0 0 131 112" fill="none" xmlns="http://www.w3.org/2000/svg">
<g clip-path="url(#clip0_91_1352)">
<path d="M99.52 14.38C100.01 20.93 102.14 57.38 77.3 77.77C73.2871 81.0648 68.8172 83.7595 64.03 85.77C56.6162 81.4989 50.0751 75.867 44.75 69.17C27.32 47.08 29.66 20.9 30.49 14C34.6099 13.979 38.7173 13.5435 42.75 12.7C50.1309 11.142 57.1659 8.25145 63.51 4.17003L66.07 3.91003C72.4214 7.99987 79.4258 10.9728 86.78 12.7C90.9603 13.6822 95.228 14.245 99.52 14.38Z" fill="#1A1F2C"/>
<path d="M95.33 18.06C95.76 23.82 97.63 55.88 75.8 73.79C72.2671 76.6726 68.3365 79.0302 64.13 80.79C57.6123 77.0408 51.8615 72.094 47.18 66.21C31.86 46.81 33.91 23.79 34.64 17.74C38.2629 17.7202 41.8745 17.3349 45.42 16.59C51.9092 15.2164 58.0936 12.6715 63.67 9.07999L65.92 8.85999C71.5056 12.4547 77.6642 15.0689 84.13 16.59C87.8059 17.4476 91.5574 17.9399 95.33 18.06Z" fill="black"/>
<path d="M72.65 40.9H56.65V56.9H72.65V40.9Z" fill="#1A1F2C"/>
<path d="M81.01 34.57L72.74 40.88L66.61 32.85L66.66 32.81L66.61 32.74L74.82 26.47L81.01 34.57Z" fill="#1A1F2C"/>
<path d="M66.56 32.78L66.61 32.85L56.65 40.7901L48.67 30.7701L58.69 22.8L66.61 32.7401L66.56 32.78Z" fill="#1A1F2C"/>
<path d="M29.9 0.640001C27.4077 -0.213334 24.7024 -0.213334 22.21 0.640001C21.318 0.898538 20.4855 1.33007 19.76 1.91C18.7075 2.75347 17.9139 3.87635 17.47 5.15L17.29 10.52C18.7682 9.8351 20.3325 9.35404 21.94 9.09C22.9512 8.923 23.9752 8.84603 25 8.86C25.0221 7.08863 25.5344 5.35798 26.48 3.86C27.3428 2.5258 28.5163 1.42086 29.9 0.640001Z" fill="black"/>
<path d="M15.78 1C14.505 1.6454 13.3647 2.5278 12.42 3.6C11.2736 4.91765 10.4456 6.48127 10 8.17V14.46L11.17 18.46C12.2992 16.9557 13.3442 15.39 14.3 13.77C14.86 12.77 15.37 11.88 15.83 10.98C16.1807 9.1012 16.3316 7.19056 16.28 5.28C16.2206 3.84283 16.0535 2.41215 15.78 1Z" fill="black"/>
<path d="M12 20.17C13.0038 16.6671 15.1824 13.6163 18.17 11.53C19.316 11.061 20.5264 10.7677 21.76 10.66C23.3179 10.5185 24.8885 10.6712 26.39 11.11C25.8123 12.2421 25.1042 13.3026 24.28 14.27C23.4081 15.2971 22.414 16.2138 21.32 17C19.2171 17.1058 17.1491 17.5796 15.21 18.4C14.0838 18.8818 13.0085 19.4747 12 20.17Z" fill="black"/>
<path d="M8.63002 30.72C8.40567 28.5305 8.83257 26.3235 9.85722 24.3756C10.8819 22.4277 12.4587 20.8256 14.39 19.77C16.3273 18.7388 18.5253 18.3006 20.71 18.51C20.0257 21.1036 18.642 23.4593 16.71 25.32L8.63002 30.72Z" fill="black"/>
<path d="M7.29002 29.38L10 20.72C10.255 18.9461 10.1426 17.1387 9.67002 15.41C9.28693 13.9824 8.6648 12.6299 7.83002 11.41C5.55544 13.7007 4.14235 16.707 3.83002 19.92C3.87784 21.6508 4.21587 23.3612 4.83002 24.98C5.39593 26.575 6.22768 28.0626 7.29002 29.38Z" fill="black"/>
<path d="M2.75999 23C3.5508 24.0942 4.25622 25.2476 4.86999 26.45C5.70854 28.074 6.3787 29.7796 6.86999 31.54C6.94999 34.54 7.02999 37.54 7.09999 40.54L1.23999 33.54C0.839196 30.9151 1.00629 28.2348 1.72999 25.68C2.01613 24.7657 2.36016 23.8706 2.75999 23Z" fill="black"/>
<path d="M17.09 27.1899C13.4577 28.0078 10.2352 30.0923 7.99999 33.0699C7.99999 35.7399 7.99999 38.4099 7.92999 41.0699C10.3018 38.1812 13.0612 35.6338 16.13 33.4999C16.4633 31.4066 16.7833 29.3033 17.09 27.1899Z" fill="black"/>
<path d="M10 51.32C10.5532 50.2801 11.1746 49.2779 11.86 48.32C13.0712 46.6484 14.4816 45.1305 16.06 43.8V35.91C14.5213 36.5704 13.0996 37.4754 11.85 38.59C10.7614 39.5595 9.8183 40.6811 9.05004 41.92C8.4214 45.078 8.75226 48.3518 10 51.32Z" fill="black"/>
<path d="M8.43002 51.19C8.05002 48.29 7.68002 45.38 7.30002 42.48L0.450018 34.77C-0.154156 38.0995 -0.154156 41.5105 0.450018 44.84C1.52017 46.2008 2.74508 47.4324 4.10002 48.51C5.4417 49.558 6.8936 50.4567 8.43002 51.19Z" fill="black"/>
<path d="M15 62.8101C14.9459 60.8848 15.2862 58.9689 16 57.1801C16.4067 56.1433 16.9372 55.1595 17.58 54.2501C17.4709 52.1925 17.2237 50.1445 16.84 48.1201C16.64 47.0934 16.42 46.1134 16.18 45.1801C13.8399 47.0524 12.05 49.523 11 52.3301C10.95 53.2601 10.89 54.1801 10.84 55.1101C10.9138 56.815 11.4271 58.4719 12.33 59.9201C13.0105 61.0577 13.9197 62.0418 15 62.8101Z" fill="black"/>
<path d="M9.52004 53.75C9.6181 55.3666 9.99711 56.9536 10.64 58.44C11.2427 59.8402 12.0778 61.1284 13.11 62.25C12.18 61.93 11.22 61.56 10.21 61.12C8.03154 60.1653 5.95164 58.9997 4.00004 57.64C3.00589 56.2213 2.23995 54.6557 1.73004 53C1.21575 51.3122 0.969419 49.5542 1.00004 47.79C2.69104 48.7165 4.32406 49.7451 5.89004 50.87C7.14935 51.7662 8.361 52.7275 9.52004 53.75Z" fill="black"/>
<path d="M21.26 71.49C21.2619 69.7086 21.3687 67.9289 21.58 66.16C21.76 64.66 22.01 63.27 22.28 62L18.62 54.66C17.8234 55.6956 17.1739 56.8364 16.69 58.05C16.1555 59.3666 15.8185 60.7549 15.69 62.17C15.6196 64.0917 16.1047 65.993 17.0873 67.646C18.0699 69.299 19.5082 70.6337 21.23 71.49H21.26Z" fill="black"/>
<path d="M19.38 71.14C17.0032 69.3071 15.2048 66.8283 14.2 64C12.754 63.172 11.2652 62.421 9.73999 61.75C8.11102 61.0302 6.44153 60.4058 4.73999 59.88C4.92078 61.6264 5.47514 63.3134 6.36547 64.8266C7.2558 66.3398 8.46124 67.6438 9.89999 68.65C11.2958 69.3647 12.7598 69.9376 14.27 70.36C15.9405 70.8019 17.6537 71.0634 19.38 71.14Z" fill="black"/>
<path d="M23.47 62.55C23.0771 63.729 22.773 64.9357 22.56 66.1601C22.2206 68.141 22.1299 70.1566 22.29 72.1601C22.9157 73.6941 23.865 75.0752 25.073 76.209C26.281 77.3428 27.7194 78.2027 29.29 78.7301C28.7346 77.0126 28.3986 75.2318 28.29 73.43C28.1919 71.7034 28.2993 69.9713 28.61 68.27L23.47 62.55Z" fill="black"/>
<path d="M20.8 72.72C21.5306 73.934 22.4296 75.0383 23.47 76C24.5628 77.0158 25.7995 77.865 27.14 78.52C25.8379 78.7346 24.5196 78.835 23.2 78.82C22.0241 78.8082 20.8508 78.7079 19.69 78.52C16.3071 76.8889 13.5276 74.2284 11.75 70.92C13.38 71.1 15.15 71.38 17.03 71.78C18.37 72.06 19.63 72.38 20.8 72.72Z" fill="black"/>
<path d="M29.75 69.86C29.3111 71.4705 29.2001 73.1526 29.4234 74.8068C29.6467 76.461 30.1998 78.0535 31.05 79.49C33.1015 82.2106 36.1468 84.0083 39.52 84.49C38.7673 83.1504 38.1477 81.7404 37.67 80.28C37.0958 78.5275 36.7202 76.7162 36.55 74.88C35 73.59 33.25 72.28 31.4 71C30.85 70.6 30.3 70.22 29.75 69.86Z" fill="black"/>
<path d="M30.39 79.93C31.9693 82.2967 34.3653 83.9984 37.12 84.71C36.46 84.95 35.74 85.18 34.98 85.39C33.0021 85.916 30.9666 86.1948 28.92 86.22C27.3858 85.9252 25.9162 85.3597 24.58 84.55C22.6126 83.3495 20.9845 81.6663 19.85 79.66L30.39 79.93Z" fill="black"/>
<path d="M29.9 88.1C29.9136 87.8528 29.9783 87.611 30.09 87.39C30.22 87.13 30.66 86.48 33.52 86.03C34.6727 85.8596 35.835 85.7628 37 85.74C37.68 85.74 38.24 85.74 38.63 85.74C39.3845 85.7122 40.134 85.8737 40.81 86.21C41.03 86.33 40.95 86.31 41.91 86.95C42.87 87.59 43.13 87.72 43.63 88.11C43.9817 88.3783 44.3157 88.6689 44.63 88.98C46.336 89.1999 48.0286 89.5137 49.7 89.92C52.7452 90.6605 55.7122 91.6919 58.56 93C60.445 93.8424 62.2842 94.7838 64.07 95.82L61.38 97.44C59.3622 96.2051 57.2755 95.0866 55.13 94.09C53.0256 93.0284 50.8128 92.1969 48.53 91.61C47.2529 91.3142 45.9563 91.1103 44.65 91L41.93 91.68C37.6206 92.1021 33.3162 90.8287 29.93 88.13L29.9 88.1Z" fill="black"/>
<path d="M50.16 88.13C49.8126 84.8093 48.2532 81.7331 45.78 79.49C44.7898 78.6406 43.6858 77.9338 42.5 77.39C41.0595 76.6349 39.5533 76.0124 38 75.53C37.8337 77.0294 37.9559 78.5467 38.36 80C38.7098 81.2148 39.2318 82.3732 39.91 83.44C41.1319 85.5186 43.0584 87.0903 45.34 87.87C46.8997 88.3581 48.5568 88.4474 50.16 88.13Z" fill="black"/>
<path d="M48.8 107L54.42 110.32C55.7413 108.265 57.2368 106.328 58.89 104.53C61.9163 101.24 65.4348 98.4403 69.32 96.23C71.7457 94.6864 74.3433 93.4312 77.06 92.49C77.38 92.39 79.06 91.88 81.42 91.11L83.4801 90.45C84.6346 91.3189 86.0353 91.7986 87.4801 91.82C89.1805 91.9252 90.8872 91.7905 92.5501 91.42C93.9918 91.1025 95.3889 90.6088 96.71 89.95C97.1319 89.8441 97.5249 89.6455 97.8604 89.3687C98.196 89.092 98.4657 88.744 98.6501 88.35C98.761 88.0599 98.812 87.7504 98.8001 87.44C98.4045 87.0623 97.9524 86.7485 97.46 86.51C96.559 86.0757 95.5553 85.8992 94.56 86H91.0501L88.5 86.19C87.8098 86.5084 87.1417 86.8726 86.5 87.28C85.6202 87.8088 84.7841 88.4074 84 89.07C81.7447 89.3919 79.5131 89.8629 77.32 90.48C74.1068 91.3705 70.9859 92.5659 68 94.05L62.8101 97.05C60.8801 98.19 58.8801 99.45 56.8101 100.86C54.0293 102.758 51.3553 104.808 48.8 107Z" fill="black"/>
<path d="M81.07 107.75L75 111.39C72.6176 106.712 69.0918 102.711 64.75 99.76L67.36 97.76C71.94 101.087 76.51 104.417 81.07 107.75Z" fill="black"/>
<path d="M100.31 0.640001C102.802 -0.213334 105.508 -0.213334 108 0.640001C108.892 0.898538 109.725 1.33007 110.45 1.91C111.502 2.75347 112.296 3.87635 112.74 5.15L112.92 10.52C111.442 9.8351 109.878 9.35404 108.27 9.09C107.259 8.923 106.235 8.84603 105.21 8.86C105.188 7.08863 104.676 5.35798 103.73 3.86C102.87 2.52347 101.696 1.41792 100.31 0.640001Z" fill="black"/>
<path d="M114.44 1C115.715 1.6454 116.855 2.5278 117.8 3.6C118.964 4.91274 119.81 6.47674 120.27 8.17V14.46L119.1 18.46C117.98 16.942 116.945 15.3629 116 13.73C115.44 12.73 114.93 11.84 114.47 10.94C114.119 9.0612 113.968 7.15056 114.02 5.24C114.045 3.81762 114.185 2.39962 114.44 1Z" fill="black"/>
<path d="M118.22 20.17C117.216 16.6671 115.038 13.6163 112.05 11.53C110.904 11.061 109.694 10.7677 108.46 10.66C106.902 10.5185 105.332 10.6712 103.83 11.11C104.408 12.2421 105.116 13.3026 105.94 14.27C106.826 15.2925 107.833 16.2026 108.94 16.98C111.043 17.0858 113.111 17.5596 115.05 18.38C116.163 18.8705 117.225 19.4701 118.22 20.17Z" fill="black"/>
<path d="M121.59 30.72C121.814 28.5305 121.387 26.3235 120.363 24.3756C119.338 22.4277 117.761 20.8256 115.83 19.77C113.893 18.7388 111.695 18.3006 109.51 18.51C110.194 21.1036 111.578 23.4593 113.51 25.32L121.59 30.72Z" fill="black"/>
<path d="M122.93 29.3799L120.27 20.7199C119.804 17.4639 120.578 14.1515 122.44 11.4399C124.715 13.7306 126.128 16.7369 126.44 19.9499C126.361 23.3981 125.125 26.7195 122.93 29.3799Z" fill="black"/>
<path d="M127.45 23C126.659 24.0942 125.954 25.2476 125.34 26.45C124.501 28.074 123.831 29.7796 123.34 31.54C123.26 34.54 123.18 37.54 123.11 40.54L128.97 33.54C129.371 30.9151 129.204 28.2348 128.48 25.68C128.194 24.7657 127.85 23.8706 127.45 23Z" fill="black"/>
<path d="M113.12 27.1899C116.745 28.0121 119.96 30.0962 122.19 33.0699C122.19 35.7399 122.19 38.4099 122.26 41.0699C119.888 38.1812 117.129 35.6338 114.06 33.4999C113.74 31.4066 113.427 29.3033 113.12 27.1899Z" fill="black"/>
<path d="M120.21 51.32C119.657 50.2801 119.035 49.2779 118.35 48.32C117.139 46.6484 115.728 45.1305 114.15 43.8V35.91C115.689 36.5704 117.11 37.4754 118.36 38.59C119.449 39.5595 120.392 40.6811 121.16 41.92C121.773 45.0829 121.425 48.3569 120.16 51.32H120.21Z" fill="black"/>
<path d="M121.78 51.19C122.16 48.29 122.53 45.38 122.91 42.48L129.76 34.77C130.364 38.0995 130.364 41.5105 129.76 44.84C128.69 46.2008 127.465 47.4324 126.11 48.51C124.768 49.558 123.316 50.4567 121.78 51.19Z" fill="black"/>
<path d="M115.2 62.8101C115.254 60.8848 114.914 58.9689 114.2 57.1801C113.793 56.1433 113.263 55.1595 112.62 54.2501C112.729 52.1925 112.976 50.1445 113.36 48.1201C113.56 47.0934 113.78 46.1134 114.02 45.1801C116.371 47.0486 118.172 49.5196 119.23 52.3301C119.23 53.2601 119.34 54.1801 119.39 55.1101C119.316 56.815 118.803 58.4719 117.9 59.9201C117.211 61.0607 116.291 62.045 115.2 62.8101Z" fill="black"/>
<path d="M120.69 53.75C120.592 55.3666 120.213 56.9536 119.57 58.44C118.967 59.8402 118.132 61.1284 117.1 62.25C118.03 61.93 118.99 61.56 120 61.12C122.168 60.1635 124.238 58.998 126.18 57.64C127.182 56.2324 127.958 54.677 128.48 53.03C129.011 51.3348 129.271 49.5664 129.25 47.79C127.559 48.7165 125.926 49.7451 124.36 50.87C123.087 51.765 121.862 52.7264 120.69 53.75Z" fill="black"/>
<path d="M109 71.49C108.998 69.7086 108.891 67.9289 108.68 66.16C108.5 64.66 108.25 63.27 107.98 62L111.64 54.66C112.437 55.6956 113.086 56.8364 113.57 58.05C114.105 59.3666 114.442 60.7549 114.57 62.17C114.638 64.0949 114.148 65.9985 113.16 67.6518C112.172 69.3052 110.727 70.638 109 71.49Z" fill="black"/>
<path d="M110.83 71.14C113.203 69.3057 114.998 66.827 116 64C117.446 63.172 118.935 62.421 120.46 61.75C122.089 61.0302 123.758 60.4058 125.46 59.88C125.279 61.6264 124.725 63.3134 123.835 64.8266C122.944 66.3398 121.739 67.6438 120.3 68.65C118.925 69.3467 117.485 69.9061 116 70.32C114.311 70.7797 112.578 71.0546 110.83 71.14Z" fill="black"/>
<path d="M106.74 62.55C107.133 63.729 107.437 64.9357 107.65 66.1601C107.989 68.141 108.08 70.1566 107.92 72.1601C107.294 73.6941 106.345 75.0752 105.137 76.209C103.929 77.3428 102.491 78.2027 100.92 78.7301C101.475 77.0126 101.811 75.2318 101.92 73.43C102.018 71.7034 101.911 69.9713 101.6 68.27L106.74 62.55Z" fill="black"/>
<path d="M109.42 72.72C108.689 73.934 107.79 75.0383 106.75 76C105.657 77.0158 104.421 77.865 103.08 78.52C104.382 78.7346 105.7 78.835 107.02 78.82C108.196 78.8082 109.369 78.7079 110.53 78.52C113.913 76.8889 116.692 74.2284 118.47 70.92C116.84 71.1 115.07 71.38 113.19 71.78C111.84 72.06 110.59 72.38 109.42 72.72Z" fill="black"/>
<path d="M100.46 69.86C100.899 71.4705 101.01 73.1526 100.787 74.8068C100.563 76.461 100.01 78.0535 99.16 79.49C97.1085 82.2106 94.0632 84.0083 90.69 84.49C91.4427 83.1504 92.0623 81.7404 92.54 80.28C93.1141 78.5275 93.4898 76.7162 93.66 74.88C95.24 73.57 96.96 72.26 98.81 70.97C99.36 70.6 99.91 70.22 100.46 69.86Z" fill="black"/>
<path d="M99.82 79.93C98.2407 82.2967 95.8448 83.9984 93.09 84.71C93.75 84.95 94.47 85.18 95.23 85.39C97.208 85.916 99.2435 86.1948 101.29 86.22C102.824 85.9252 104.294 85.3597 105.63 84.55C107.597 83.3495 109.226 81.6663 110.36 79.66L99.82 79.93Z" fill="black"/>
<path d="M80.05 88.13C80.3974 84.8093 81.9568 81.7331 84.43 79.49C85.4202 78.6406 86.5242 77.9338 87.71 77.39C89.1442 76.636 90.6436 76.0135 92.19 75.53C92.3629 77.0281 92.2475 78.5454 91.85 80C91.5003 81.2148 90.9783 82.3732 90.3 83.44C89.0781 85.5186 87.1516 87.0903 84.87 87.87C83.3103 88.3581 81.6532 88.4474 80.05 88.13Z" fill="black"/>
</g>
<defs>
<clipPath id="clip0_91_1352">
<rect width="130.22" height="111.39" fill="white"/>
</clipPath>
</defs>
</svg>
