<svg
    xmlns="http://www.w3.org/2000/svg"
    xmlns:xlink="http://www.w3.org/1999/xlink"
    width="1em"
    height="1em"
    viewBox="0 0 1000 1000"
    aria-hidden="true"
    focusable="false"
>
    <g>
        <defs>
            <path id="SVGID_1_" d="M634.4000244,0h-1.8000488h-95.2999878H365.6000366C64.5,0,0,64.5999756,0,365.5999756v268.8000488
                C0,935.5,64.6000366,1000,365.6000366,1000h171.6999512h95.2999878h1.8000488C935.5,1000,1000,935.3999634,1000,634.3999634
                V365.5999756C1000,64.5,935.4000244,0,634.4000244,0z"/>
        </defs>
        <clipPath id="SVGID_00000038411368238730715210000002565779877963195808_">
            <use xlink:href="#SVGID_1_" overflow="visible"/>
        </clipPath>
    </g>
    <path
        fill="rgb(74, 111, 165)"
        fill-rule="evenodd"
        clip-rule="evenodd"
        d="M508.2113037,878.3283691
        c-75.0068665,0-109.8640442-10.9498291-170.4535217-54.7494507
        c-38.3246765,49.2745361-159.6860962,87.7817383-164.9785461,21.8997803c0-49.4570312-10.9499207-91.2491455-23.3598175-136.8737793
        c-14.7823486-56.2095337-31.572197-118.8065186-31.572197-209.5082092C117.8472214,282.4710693,295.600647,119.5,506.2038574,119.5
        c210.7856445,0,375.9467163,171.0010071,375.9467163,381.6041565
        C882.8580322,708.4505005,715.5558472,877.2223511,508.2113037,878.3283691z M511.3137817,306.7434082
        c-102.5641174-5.29245-182.4984131,65.6994324-200.2007751,177.023468
        c-14.599884,92.1616516,11.3149109,204.3982239,33.3972168,210.2381897
        c10.5848999,2.5549316,37.2296753-18.9799194,53.8370361-35.5872192
        c27.4610901,18.9708252,59.43927,30.364624,92.7091675,33.0322266
        c106.2732849,5.1118774,197.0797424-75.7943115,204.2157288-181.9509583
        c4.1541138-106.3812256-77.6702881-196.4854431-183.9584351-202.5732117L511.3137817,306.7434082z"
    />
</svg>
